<mxfile host="app.diagrams.net" modified="2020-03-22T18:15:52.584Z" agent="Mozilla/5.0 (Windows NT 10.0; Win64; x64) AppleWebKit/537.36 (KHTML, like Gecko) Chrome/80.0.3987.132 Safari/537.36 OPR/67.0.3575.97" etag="v-VDJsQppjssuBx3hYsS" version="12.8.8" type="github">
  <diagram id="XOiq1ZVGkSU7TmV_REzg" name="Page-1">
    <mxGraphModel dx="828" dy="452" grid="1" gridSize="10" guides="1" tooltips="1" connect="1" arrows="1" fold="1" page="1" pageScale="1" pageWidth="827" pageHeight="1169" math="0" shadow="0">
      <root>
        <mxCell id="0" />
        <mxCell id="1" parent="0" />
        <mxCell id="uV7w5uH_OKbbwK_-CN8l-2" value="Регистрация заказа" style="rounded=1;whiteSpace=wrap;html=1;" parent="1" vertex="1">
          <mxGeometry x="99" y="220" width="120" height="60" as="geometry" />
        </mxCell>
        <mxCell id="uV7w5uH_OKbbwK_-CN8l-3" value="Формирование заказа" style="rounded=1;whiteSpace=wrap;html=1;" parent="1" vertex="1">
          <mxGeometry x="269" y="280" width="120" height="60" as="geometry" />
        </mxCell>
        <mxCell id="uV7w5uH_OKbbwK_-CN8l-4" value="Оформление заказа" style="rounded=1;whiteSpace=wrap;html=1;" parent="1" vertex="1">
          <mxGeometry x="439" y="340" width="120" height="60" as="geometry" />
        </mxCell>
        <mxCell id="uV7w5uH_OKbbwK_-CN8l-5" value="Выдача заказа" style="rounded=1;whiteSpace=wrap;html=1;" parent="1" vertex="1">
          <mxGeometry x="609" y="400" width="120" height="60" as="geometry" />
        </mxCell>
        <mxCell id="uV7w5uH_OKbbwK_-CN8l-6" value="" style="endArrow=classic;html=1;exitX=1;exitY=0.5;exitDx=0;exitDy=0;entryX=0;entryY=0.5;entryDx=0;entryDy=0;" parent="1" source="uV7w5uH_OKbbwK_-CN8l-2" target="uV7w5uH_OKbbwK_-CN8l-3" edge="1">
          <mxGeometry width="50" height="50" relative="1" as="geometry">
            <mxPoint x="429" y="400" as="sourcePoint" />
            <mxPoint x="479" y="350" as="targetPoint" />
            <Array as="points">
              <mxPoint x="240" y="250" />
              <mxPoint x="240" y="310" />
            </Array>
          </mxGeometry>
        </mxCell>
        <mxCell id="uV7w5uH_OKbbwK_-CN8l-7" value="" style="endArrow=classic;html=1;exitX=1;exitY=0.5;exitDx=0;exitDy=0;entryX=0;entryY=0.5;entryDx=0;entryDy=0;" parent="1" edge="1" target="uV7w5uH_OKbbwK_-CN8l-4">
          <mxGeometry width="50" height="50" relative="1" as="geometry">
            <mxPoint x="389" y="310" as="sourcePoint" />
            <mxPoint x="499" y="340" as="targetPoint" />
            <Array as="points">
              <mxPoint x="410" y="310" />
              <mxPoint x="410" y="370" />
            </Array>
          </mxGeometry>
        </mxCell>
        <mxCell id="uV7w5uH_OKbbwK_-CN8l-8" value="" style="endArrow=classic;html=1;exitX=1;exitY=0.5;exitDx=0;exitDy=0;entryX=0;entryY=0.5;entryDx=0;entryDy=0;" parent="1" edge="1" target="uV7w5uH_OKbbwK_-CN8l-5">
          <mxGeometry width="50" height="50" relative="1" as="geometry">
            <mxPoint x="559" y="370" as="sourcePoint" />
            <mxPoint x="669" y="400" as="targetPoint" />
            <Array as="points">
              <mxPoint x="580" y="370" />
              <mxPoint x="580" y="430" />
            </Array>
          </mxGeometry>
        </mxCell>
        <mxCell id="uV7w5uH_OKbbwK_-CN8l-9" value="" style="endArrow=classic;html=1;entryX=0;entryY=0.5;entryDx=0;entryDy=0;" parent="1" target="uV7w5uH_OKbbwK_-CN8l-2" edge="1">
          <mxGeometry width="50" height="50" relative="1" as="geometry">
            <mxPoint x="40" y="250" as="sourcePoint" />
            <mxPoint x="420" y="310" as="targetPoint" />
          </mxGeometry>
        </mxCell>
        <mxCell id="uV7w5uH_OKbbwK_-CN8l-10" value="Люди" style="text;html=1;align=center;verticalAlign=middle;resizable=0;points=[];autosize=1;" parent="1" vertex="1">
          <mxGeometry x="40" y="230" width="50" height="20" as="geometry" />
        </mxCell>
        <mxCell id="uV7w5uH_OKbbwK_-CN8l-11" value="" style="endArrow=classic;html=1;entryX=0.5;entryY=1;entryDx=0;entryDy=0;" parent="1" target="uV7w5uH_OKbbwK_-CN8l-2" edge="1">
          <mxGeometry width="50" height="50" relative="1" as="geometry">
            <mxPoint x="400" y="590" as="sourcePoint" />
            <mxPoint x="210" y="330" as="targetPoint" />
            <Array as="points">
              <mxPoint x="400" y="560" />
              <mxPoint x="159" y="560" />
            </Array>
          </mxGeometry>
        </mxCell>
        <mxCell id="uV7w5uH_OKbbwK_-CN8l-12" value="" style="endArrow=classic;html=1;entryX=0.5;entryY=1;entryDx=0;entryDy=0;" parent="1" target="uV7w5uH_OKbbwK_-CN8l-5" edge="1">
          <mxGeometry width="50" height="50" relative="1" as="geometry">
            <mxPoint x="380" y="560" as="sourcePoint" />
            <mxPoint x="660" y="510" as="targetPoint" />
            <Array as="points">
              <mxPoint x="669" y="560" />
            </Array>
          </mxGeometry>
        </mxCell>
        <mxCell id="uV7w5uH_OKbbwK_-CN8l-13" value="" style="endArrow=classic;html=1;entryX=0.5;entryY=1;entryDx=0;entryDy=0;" parent="1" target="uV7w5uH_OKbbwK_-CN8l-3" edge="1">
          <mxGeometry width="50" height="50" relative="1" as="geometry">
            <mxPoint x="329" y="560" as="sourcePoint" />
            <mxPoint x="420" y="540" as="targetPoint" />
          </mxGeometry>
        </mxCell>
        <mxCell id="uV7w5uH_OKbbwK_-CN8l-14" value="" style="endArrow=classic;html=1;entryX=0.5;entryY=1;entryDx=0;entryDy=0;" parent="1" target="uV7w5uH_OKbbwK_-CN8l-4" edge="1">
          <mxGeometry width="50" height="50" relative="1" as="geometry">
            <mxPoint x="499" y="560" as="sourcePoint" />
            <mxPoint x="420" y="540" as="targetPoint" />
          </mxGeometry>
        </mxCell>
        <mxCell id="uV7w5uH_OKbbwK_-CN8l-15" value="Библиотекарь&lt;br&gt;" style="text;html=1;align=center;verticalAlign=middle;resizable=0;points=[];autosize=1;" parent="1" vertex="1">
          <mxGeometry x="310" y="565" width="90" height="20" as="geometry" />
        </mxCell>
        <mxCell id="uV7w5uH_OKbbwK_-CN8l-16" value="Заказ книги" style="text;html=1;align=center;verticalAlign=middle;resizable=0;points=[];autosize=1;" parent="1" vertex="1">
          <mxGeometry x="219" y="220" width="80" height="20" as="geometry" />
        </mxCell>
        <mxCell id="uV7w5uH_OKbbwK_-CN8l-21" value="Счёт фактура (документ на получение книги)" style="text;html=1;strokeColor=none;fillColor=none;align=center;verticalAlign=middle;whiteSpace=wrap;rounded=0;" parent="1" vertex="1">
          <mxGeometry x="570" y="330" width="100" height="20" as="geometry" />
        </mxCell>
        <mxCell id="uV7w5uH_OKbbwK_-CN8l-22" value="Уточненная информация" style="text;html=1;strokeColor=none;fillColor=none;align=center;verticalAlign=middle;whiteSpace=wrap;rounded=0;" parent="1" vertex="1">
          <mxGeometry x="400" y="280" width="90" height="20" as="geometry" />
        </mxCell>
        <mxCell id="uV7w5uH_OKbbwK_-CN8l-26" value="" style="endArrow=classic;html=1;" parent="1" edge="1">
          <mxGeometry width="50" height="50" relative="1" as="geometry">
            <mxPoint x="729" y="430" as="sourcePoint" />
            <mxPoint x="809" y="430" as="targetPoint" />
          </mxGeometry>
        </mxCell>
        <mxCell id="uV7w5uH_OKbbwK_-CN8l-28" value="Книги" style="text;html=1;strokeColor=none;fillColor=none;align=center;verticalAlign=middle;whiteSpace=wrap;rounded=0;" parent="1" vertex="1">
          <mxGeometry x="740" y="410" width="40" height="20" as="geometry" />
        </mxCell>
        <mxCell id="uV7w5uH_OKbbwK_-CN8l-31" value="" style="endArrow=classic;html=1;entryX=0.25;entryY=0;entryDx=0;entryDy=0;" parent="1" target="uV7w5uH_OKbbwK_-CN8l-3" edge="1">
          <mxGeometry width="50" height="50" relative="1" as="geometry">
            <mxPoint x="299" y="160" as="sourcePoint" />
            <mxPoint x="420" y="330" as="targetPoint" />
          </mxGeometry>
        </mxCell>
        <mxCell id="uV7w5uH_OKbbwK_-CN8l-32" value="" style="endArrow=classic;html=1;entryX=0.25;entryY=0;entryDx=0;entryDy=0;" parent="1" edge="1">
          <mxGeometry width="50" height="50" relative="1" as="geometry">
            <mxPoint x="700" y="160" as="sourcePoint" />
            <mxPoint x="700" y="400" as="targetPoint" />
          </mxGeometry>
        </mxCell>
        <mxCell id="uV7w5uH_OKbbwK_-CN8l-33" value="Запрашиваемая книга" style="text;html=1;strokeColor=none;fillColor=none;align=center;verticalAlign=middle;whiteSpace=wrap;rounded=0;" parent="1" vertex="1">
          <mxGeometry x="689" y="130" width="40" height="20" as="geometry" />
        </mxCell>
        <mxCell id="uV7w5uH_OKbbwK_-CN8l-35" value="Информация о книге" style="text;html=1;align=center;verticalAlign=middle;resizable=0;points=[];autosize=1;" parent="1" vertex="1">
          <mxGeometry x="240" y="140" width="130" height="20" as="geometry" />
        </mxCell>
        <mxCell id="uV7w5uH_OKbbwK_-CN8l-36" value="" style="endArrow=classic;html=1;" parent="1" edge="1">
          <mxGeometry width="50" height="50" relative="1" as="geometry">
            <mxPoint x="450" y="160" as="sourcePoint" />
            <mxPoint x="160" y="220" as="targetPoint" />
            <Array as="points">
              <mxPoint x="450" y="180" />
              <mxPoint x="160" y="180" />
            </Array>
          </mxGeometry>
        </mxCell>
        <mxCell id="uV7w5uH_OKbbwK_-CN8l-37" value="" style="endArrow=classic;html=1;entryX=0.25;entryY=0;entryDx=0;entryDy=0;" parent="1" target="uV7w5uH_OKbbwK_-CN8l-5" edge="1">
          <mxGeometry width="50" height="50" relative="1" as="geometry">
            <mxPoint x="450" y="160" as="sourcePoint" />
            <mxPoint x="420" y="330" as="targetPoint" />
            <Array as="points">
              <mxPoint x="450" y="180" />
              <mxPoint x="639" y="180" />
            </Array>
          </mxGeometry>
        </mxCell>
        <mxCell id="uV7w5uH_OKbbwK_-CN8l-38" value="Устав библиотеки" style="text;html=1;align=center;verticalAlign=middle;resizable=0;points=[];autosize=1;" parent="1" vertex="1">
          <mxGeometry x="400" y="130" width="110" height="20" as="geometry" />
        </mxCell>
        <mxCell id="uV7w5uH_OKbbwK_-CN8l-39" value="" style="endArrow=classic;html=1;entryX=0.75;entryY=0;entryDx=0;entryDy=0;" parent="1" target="uV7w5uH_OKbbwK_-CN8l-3" edge="1">
          <mxGeometry width="50" height="50" relative="1" as="geometry">
            <mxPoint x="359" y="180" as="sourcePoint" />
            <mxPoint x="500" y="330" as="targetPoint" />
          </mxGeometry>
        </mxCell>
        <mxCell id="uV7w5uH_OKbbwK_-CN8l-40" value="" style="endArrow=classic;html=1;entryX=0.75;entryY=0;entryDx=0;entryDy=0;" parent="1" target="uV7w5uH_OKbbwK_-CN8l-4" edge="1">
          <mxGeometry width="50" height="50" relative="1" as="geometry">
            <mxPoint x="529" y="180" as="sourcePoint" />
            <mxPoint x="500" y="330" as="targetPoint" />
          </mxGeometry>
        </mxCell>
      </root>
    </mxGraphModel>
  </diagram>
</mxfile>
